<?xml version="1.0" encoding="utf-8"?>
<!-- Generator: Adobe Illustrator 17.0.0, SVG Export Plug-In . SVG Version: 6.00 Build 0)  -->
<!DOCTYPE svg PUBLIC "-//W3C//DTD SVG 1.1//EN" "http://www.w3.org/Graphics/SVG/1.1/DTD/svg11.dtd">
<svg version="1.1" id="Capa_1" xmlns="http://www.w3.org/2000/svg" xmlns:xlink="http://www.w3.org/1999/xlink" x="0px" y="0px"
	 width="141.732px" height="141.732px" viewBox="0 0 141.732 141.732" enable-background="new 0 0 141.732 141.732"
	 xml:space="preserve">
<path fill="#FFFFFF" d="M139.665,5.372c-4.062-4.062-12.209-1.745-25.638,7.294c-11.409,7.678-25.095,19.309-38.533,32.747
	C55.568,65.338,40.42,84.902,35.376,96.98c-0.83-0.301-1.691-0.542-2.579-0.717c-5.219-1.033-10.888,0.288-15.553,3.619
	c-6.694,4.78-8.467,11.608-8.724,12.758c-1.41,5.264-4.078,10.286-7.721,14.527c-1.172,1.364-1.038,3.415,0.301,4.615
	c4.682,4.196,10.669,6.299,16.898,6.299c6.003,0,12.229-1.954,17.721-5.877c2.575-1.838,4.524-3.871,4.902-4.274
	c4.665-5.014,6.646-11.589,5.665-17.595c11.849-4.248,32.508-19.962,53.339-40.791c13.438-13.44,25.069-27.125,32.747-38.533
	C141.409,17.581,143.727,9.434,139.665,5.372L139.665,5.372z M35.783,123.422c-0.177,0.189-1.796,1.894-3.907,3.402
	c-7.67,5.475-17.059,6.109-23.879,1.893c3.193-4.379,5.567-9.315,6.931-14.451c0.015-0.057,0.03-0.115,0.042-0.174
	c0.011-0.052,1.158-5.289,6.117-8.829c3.188-2.278,6.989-3.194,10.429-2.515c2.836,0.56,5.221,2.18,6.713,4.558
	C41.158,111.974,40.128,118.753,35.783,123.422L35.783,123.422z M44.032,104.132c-0.069-0.113-1.071-2.15-2.938-3.662
	c1.61-4.302,5.073-10.117,9.902-16.794l10.358,10.359C54.066,99.279,48.097,102.699,44.032,104.132L44.032,104.132z M66.703,90.034
	L55.005,78.335c2.022-2.602,4.209-5.297,6.54-8.055l13.221,13.221C71.968,85.865,69.273,88.044,66.703,90.034L66.703,90.034z
	 M125.875,28.801c-7.447,10.762-18.431,23.572-30.928,36.068c-5.246,5.248-10.333,10.019-15.167,14.296l-13.898-13.9
	c4.408-4.987,9.215-10.104,14.287-15.175c12.496-12.497,25.305-23.481,36.068-30.928c13.251-9.169,17.825-9.184,18.702-9.064
	C135.059,10.976,135.044,15.55,125.875,28.801L125.875,28.801z"/>
<path fill="#FFFFFF" d="M32.981,114.491c-1.6-0.88-3.609-0.298-4.491,1.302c-0.088,0.162-0.196,0.314-0.32,0.45
	c-0.247,0.257-1.058,1.043-1.904,1.646c-1.28,0.913-2.661,1.569-4.106,1.947c-1.766,0.462-2.824,2.268-2.361,4.035
	c0.389,1.485,1.728,2.468,3.195,2.468c0.277,0,0.559-0.035,0.838-0.108c2.227-0.582,4.339-1.579,6.277-2.963
	c1.243-0.888,2.895-2.516,2.907-2.528c0.492-0.532,0.918-1.125,1.267-1.761C35.163,117.381,34.58,115.37,32.981,114.491
	L32.981,114.491z"/>
</svg>
