<?xml version="1.0" encoding="utf-8"?>
<!-- Generator: Adobe Illustrator 17.0.0, SVG Export Plug-In . SVG Version: 6.00 Build 0)  -->
<!DOCTYPE svg PUBLIC "-//W3C//DTD SVG 1.1//EN" "http://www.w3.org/Graphics/SVG/1.1/DTD/svg11.dtd">
<svg version="1.1" id="Capa_1" xmlns="http://www.w3.org/2000/svg" xmlns:xlink="http://www.w3.org/1999/xlink" x="0px" y="0px"
	 width="141.732px" height="141.732px" viewBox="0 0 141.732 141.732" enable-background="new 0 0 141.732 141.732"
	 xml:space="preserve">
<path fill="#FFFFFF" d="M90.959,101.939c-1.488-0.896-3.017-1.795-4.545-2.677c0.359-3.062,0.359-6.159,0.001-9.215
	c1.534-0.885,3.062-1.784,4.543-2.676c2.495-1.499,3.535-4.662,2.419-7.358h-0.001l-3.255-7.86
	c-1.117-2.696-4.088-4.198-6.914-3.494c-1.679,0.419-3.395,0.863-5.104,1.321c-1.91-2.415-4.101-4.604-6.518-6.515
	c0.458-1.71,0.903-3.426,1.321-5.105c0.705-2.826-0.797-5.797-3.492-6.914l-7.861-3.255c-2.696-1.117-5.859-0.078-7.359,2.418
	c-0.893,1.486-1.792,3.015-2.675,4.545c-3.061-0.359-6.158-0.359-9.215-0.001c-0.886-1.535-1.785-3.063-2.676-4.544
	c-1.499-2.496-4.662-3.534-7.358-2.418l-7.86,3.255c-2.694,1.117-4.198,4.088-3.494,6.914c0.42,1.683,0.864,3.398,1.321,5.104
	c-2.415,1.909-4.604,4.099-6.514,6.518c-1.714-0.461-3.431-0.905-5.107-1.323c-2.826-0.704-5.797,0.8-6.914,3.494l-3.255,7.86
	c-1.117,2.696-0.077,5.859,2.418,7.358c1.487,0.893,3.015,1.792,4.546,2.676c-0.359,3.062-0.361,6.159-0.003,9.215
	c-1.532,0.885-3.059,1.784-4.544,2.675c-2.495,1.501-3.535,4.664-2.418,7.36l3.255,7.86c1.117,2.694,4.087,4.198,6.914,3.492
	c1.678-0.417,3.394-0.862,5.104-1.321c1.91,2.415,4.099,4.604,6.518,6.515c-0.459,1.711-0.903,3.428-1.322,5.106
	c-0.704,2.824,0.798,5.796,3.494,6.913l7.86,3.256c0.731,0.303,1.495,0.447,2.25,0.447c2.036,0,4.015-1.046,5.109-2.865
	c0.888-1.475,1.785-3.002,2.677-4.545c3.061,0.358,6.158,0.359,9.215,0.001c0.879,1.525,1.779,3.052,2.674,4.543
	c1.501,2.495,4.664,3.535,7.359,2.418l7.861-3.255c2.694-1.117,4.196-4.09,3.492-6.914c-0.416-1.668-0.86-3.385-1.321-5.104
	c2.415-1.909,4.605-4.099,6.515-6.518c1.708,0.458,3.425,0.902,5.106,1.321c2.824,0.705,5.796-0.797,6.912-3.492l3.256-7.86
	C94.494,106.601,93.454,103.438,90.959,101.939L90.959,101.939z M84.397,114.413c-1.615-0.404-3.26-0.832-4.897-1.272
	c-2.317-0.624-4.761,0.19-6.229,2.076c-1.686,2.166-3.637,4.118-5.799,5.801c-1.883,1.467-2.696,3.911-2.073,6.226
	c0.444,1.648,0.871,3.291,1.273,4.895l-7.226,2.993c-0.859-1.434-1.719-2.898-2.561-4.361c-1.197-2.077-3.501-3.229-5.868-2.936
	c-2.72,0.337-5.48,0.337-8.202-0.001c-2.376-0.295-4.677,0.856-5.874,2.936c-0.851,1.478-1.711,2.944-2.562,4.362l-7.226-2.993
	c0.405-1.611,0.832-3.258,1.274-4.896c0.624-2.316-0.192-4.762-2.076-6.229c-2.167-1.687-4.118-3.637-5.802-5.799
	c-1.466-1.883-3.91-2.696-6.226-2.073c-1.638,0.442-3.283,0.868-4.895,1.272l-2.993-7.224c1.428-0.856,2.893-1.717,4.361-2.562
	c2.078-1.197,3.232-3.499,2.938-5.867c-0.339-2.72-0.338-5.481,0.001-8.204c0.294-2.37-0.858-4.676-2.938-5.872
	c-1.467-0.845-2.932-1.706-4.363-2.563l2.993-7.225c1.61,0.402,3.255,0.831,4.897,1.272c2.315,0.624,4.761-0.192,6.229-2.076
	c1.686-2.166,3.637-4.118,5.798-5.801c1.884-1.467,2.697-3.912,2.073-6.228c-0.44-1.633-0.867-3.278-1.272-4.895l7.226-2.991
	c0.852,1.423,1.714,2.889,2.561,4.36c1.197,2.079,3.502,3.233,5.869,2.938c2.717-0.339,5.478-0.339,8.203,0.001
	c2.372,0.296,4.676-0.858,5.873-2.936c0.844-1.468,1.706-2.934,2.562-4.362l7.224,2.991c-0.404,1.614-0.832,3.259-1.272,4.897
	c-0.624,2.316,0.19,4.761,2.076,6.229c2.165,1.686,4.118,3.637,5.801,5.799c1.467,1.883,3.91,2.696,6.228,2.072
	c1.637-0.44,3.282-0.869,4.893-1.272l2.993,7.226c-1.425,0.854-2.89,1.714-4.361,2.561c-2.079,1.197-3.231,3.501-2.936,5.869
	c0.337,2.719,0.337,5.478-0.001,8.203c-0.296,2.371,0.857,4.676,2.936,5.873c1.465,0.843,2.931,1.704,4.362,2.562L84.397,114.413z"
	/>
<path fill="#FFFFFF" d="M66.873,86.386c-4.558-11.006-17.22-16.251-28.228-11.692c-11.006,4.558-16.252,17.222-11.692,28.228
	c2.208,5.332,6.36,9.484,11.692,11.692c2.665,1.105,5.466,1.656,8.267,1.656c2.801,0,5.602-0.551,8.268-1.656
	C66.185,110.056,71.431,97.393,66.873,86.386L66.873,86.386z M52.753,108.758c-3.767,1.56-7.914,1.56-11.683,0
	c-3.767-1.56-6.7-4.495-8.261-8.262c-3.221-7.777,0.485-16.725,8.261-19.946c1.904-0.789,3.879-1.161,5.823-1.161
	c5.993,0,11.69,3.551,14.123,9.423C64.238,96.589,60.53,105.537,52.753,108.758L52.753,108.758z"/>
<path fill="#FFFFFF" d="M137.349,27.864c-1.094-0.165-2.218-0.323-3.349-0.474c-0.572-1.896-1.333-3.736-2.273-5.482
	c0.693-0.906,1.376-1.814,2.035-2.705c1.465-1.98,1.253-4.789-0.492-6.534l-4.373-4.372c-1.745-1.745-4.554-1.957-6.534-0.492
	c-0.894,0.662-1.801,1.344-2.705,2.034c-1.746-0.94-3.584-1.702-5.482-2.272c-0.151-1.132-0.309-2.256-0.473-3.35
	c-0.365-2.437-2.5-4.273-4.969-4.273h-6.183c-2.468,0-4.604,1.837-4.969,4.273c-0.164,1.093-0.322,2.217-0.473,3.35
	c-1.898,0.57-3.736,1.332-5.482,2.272c-0.902-0.69-1.811-1.373-2.705-2.034c-1.98-1.465-4.789-1.253-6.534,0.492l-4.372,4.372
	c-1.745,1.744-1.957,4.554-0.493,6.534c0.66,0.891,1.343,1.799,2.035,2.705c-0.94,1.746-1.702,3.585-2.273,5.482
	c-1.13,0.151-2.255,0.309-3.349,0.474c-2.435,0.365-4.273,2.5-4.273,4.967v6.185c0,2.468,1.837,4.603,4.273,4.967
	c1.094,0.164,2.218,0.323,3.349,0.474c0.572,1.898,1.333,3.736,2.272,5.482c-0.692,0.905-1.374,1.812-2.034,2.705
	c-1.465,1.98-1.253,4.789,0.492,6.534l4.373,4.372c1.745,1.745,4.554,1.957,6.534,0.492c0.894-0.662,1.802-1.344,2.704-2.034
	c1.748,0.94,3.586,1.702,5.483,2.272c0.15,1.132,0.309,2.256,0.473,3.351c0.364,2.435,2.501,4.272,4.969,4.272h6.183
	c2.469,0,4.604-1.837,4.969-4.273c0.163-1.094,0.321-2.218,0.473-3.35c1.898-0.57,3.736-1.332,5.482-2.272
	c0.904,0.69,1.811,1.372,2.705,2.034c1.98,1.465,4.789,1.253,6.534-0.492l4.372-4.372c1.746-1.745,1.957-4.554,0.493-6.534
	c-0.66-0.893-1.344-1.8-2.035-2.705c0.94-1.746,1.702-3.585,2.273-5.482c1.132-0.151,2.255-0.309,3.349-0.474
	c2.437-0.363,4.274-2.5,4.274-4.967v-6.183C141.622,30.364,139.785,28.229,137.349,27.864L137.349,27.864z M135.6,38.155
	c-0.994,0.145-2.008,0.285-3.025,0.417c-2.011,0.262-3.658,1.689-4.194,3.637c-0.515,1.864-1.26,3.663-2.216,5.346
	c-0.998,1.757-0.844,3.932,0.393,5.542c0.624,0.81,1.243,1.627,1.845,2.434l-3.155,3.155c-0.809-0.605-1.625-1.223-2.434-1.845
	c-1.608-1.238-3.784-1.391-5.541-0.393c-1.684,0.956-3.482,1.702-5.346,2.215c-1.948,0.536-3.375,2.184-3.637,4.195
	c-0.132,1.017-0.271,2.031-0.416,3.024h-4.462c-0.143-0.993-0.284-2.007-0.416-3.023c-0.262-2.012-1.69-3.659-3.637-4.196
	c-1.864-0.513-3.662-1.259-5.346-2.215c-1.759-0.998-3.933-0.845-5.541,0.393c-0.809,0.622-1.625,1.24-2.435,1.845l-3.154-3.155
	c0.602-0.808,1.221-1.624,1.845-2.435c1.237-1.609,1.391-3.783,0.392-5.54c-0.956-1.684-1.702-3.483-2.215-5.346
	c-0.536-1.948-2.182-3.375-4.195-3.637c-1.017-0.134-2.031-0.273-3.024-0.417v-4.461c0.993-0.145,2.007-0.284,3.024-0.417
	c2.012-0.262,3.659-1.689,4.195-3.636c0.513-1.864,1.259-3.663,2.215-5.347c0.999-1.757,0.845-3.932-0.392-5.54
	c-0.625-0.813-1.244-1.629-1.845-2.434l3.154-3.155c0.809,0.604,1.626,1.223,2.435,1.844c1.607,1.239,3.782,1.393,5.541,0.395
	c1.683-0.956,3.482-1.702,5.344-2.216c1.949-0.536,3.377-2.184,3.637-4.195c0.134-1.017,0.273-2.03,0.417-3.024h4.462
	c0.143,0.994,0.284,2.007,0.416,3.024c0.262,2.011,1.69,3.659,3.637,4.195c1.864,0.513,3.663,1.259,5.346,2.215
	c1.759,1,3.933,0.844,5.54-0.392c0.81-0.622,1.626-1.241,2.435-1.845l3.155,3.155c-0.602,0.806-1.221,1.622-1.845,2.434
	c-1.237,1.609-1.391,3.783-0.393,5.54c0.956,1.684,1.701,3.483,2.215,5.347c0.537,1.948,2.184,3.374,4.195,3.637
	c1.017,0.132,2.031,0.273,3.025,0.416L135.6,38.155L135.6,38.155z"/>
<path fill="#FFFFFF" d="M105.642,23.09c-7.077,0-12.835,5.758-12.835,12.835s5.758,12.835,12.835,12.835
	c7.077,0,12.835-5.758,12.835-12.835S112.719,23.09,105.642,23.09L105.642,23.09z M105.642,43.054c-3.93,0-7.13-3.198-7.13-7.13
	c0-3.931,3.198-7.129,7.13-7.129s7.13,3.198,7.13,7.129C112.772,39.855,109.574,43.054,105.642,43.054L105.642,43.054z"/>
</svg>
