<?xml version="1.0" encoding="utf-8"?>
<!-- Generator: Adobe Illustrator 17.0.0, SVG Export Plug-In . SVG Version: 6.00 Build 0)  -->
<!DOCTYPE svg PUBLIC "-//W3C//DTD SVG 1.1//EN" "http://www.w3.org/Graphics/SVG/1.1/DTD/svg11.dtd">
<svg version="1.1" id="Layer_1" xmlns="http://www.w3.org/2000/svg" xmlns:xlink="http://www.w3.org/1999/xlink" x="0px" y="0px"
	 width="141.73px" height="141.73px" viewBox="0 0 141.73 141.73" enable-background="new 0 0 141.73 141.73" xml:space="preserve">
<g>
	<g>
		<path fill="#0C3A63" d="M141.336,73.228l-16.175-43.72c-0.587-1.589-1.759-2.853-3.298-3.561c-1.539-0.708-3.261-0.774-4.85-0.186
			l-78.87,29.178c-1.589,0.588-2.853,1.759-3.561,3.297c-0.708,1.539-0.774,3.261-0.186,4.85l16.175,43.72
			c0.587,1.589,1.759,2.853,3.298,3.561c0.844,0.388,1.744,0.583,2.646,0.583c0.742,0,1.487-0.132,2.204-0.397l78.87-29.178h0
			C140.868,80.162,142.549,76.507,141.336,73.228z M112.679,34.126L88.214,69.1L46.878,58.469L112.679,34.126z M55.375,101.517
			l-14.03-37.924l32.493,8.358L55.375,101.517z M62.246,102.488l18.035-28.88l8.482,2.182c0.263,0.067,0.53,0.102,0.789,0.102
			c1.021,0,1.998-0.495,2.6-1.354l5.02-7.182l32.49,10.192L62.246,102.488z M100.986,61.907l19.228-27.495l14.035,37.929
			L100.986,61.907z"/>
	</g>
</g>
<g>
	<g>
		<path fill="#0C3A63" d="M36.938,107.675c-0.607-1.642-2.432-2.481-4.073-1.873l-11.948,4.42c-1.642,0.608-2.481,2.432-1.873,4.074
			c0.473,1.28,1.685,2.071,2.974,2.071c0.365,0,0.737-0.064,1.1-0.198l11.947-4.42C36.708,111.141,37.546,109.317,36.938,107.675z"
			/>
	</g>
</g>
<g>
	<g>
		<path fill="#0C3A63" d="M20.768,78.241c-0.608-1.642-2.432-2.48-4.074-1.873l-7.375,2.729c-1.642,0.608-2.481,2.431-1.873,4.074
			c0.473,1.279,1.685,2.071,2.974,2.071c0.365,0,0.737-0.064,1.1-0.198l7.375-2.729C20.536,81.707,21.375,79.883,20.768,78.241z"/>
	</g>
</g>
<g>
	<g>
		<path fill="#0C3A63" d="M11.625,102.258c-0.608-1.642-2.432-2.481-4.074-1.873l-5.48,2.027c-1.642,0.608-2.481,2.432-1.873,4.074
			c0.473,1.279,1.685,2.071,2.974,2.071c0.365,0,0.737-0.064,1.1-0.198l5.48-2.027C11.394,105.724,12.233,103.901,11.625,102.258z"
			/>
	</g>
</g>
</svg>
