<?xml version="1.0" encoding="utf-8"?>
<!-- Generator: Adobe Illustrator 17.0.0, SVG Export Plug-In . SVG Version: 6.00 Build 0)  -->
<!DOCTYPE svg PUBLIC "-//W3C//DTD SVG 1.1//EN" "http://www.w3.org/Graphics/SVG/1.1/DTD/svg11.dtd">
<svg version="1.1" id="Capa_1" xmlns="http://www.w3.org/2000/svg" xmlns:xlink="http://www.w3.org/1999/xlink" x="0px" y="0px"
	 width="141.732px" height="141.732px" viewBox="0 0 141.732 141.732" enable-background="new 0 0 141.732 141.732"
	 xml:space="preserve">
<path fill="#FFFFFF" d="M74.504,55.797c-10.051,0-18.227,8.176-18.227,18.227s8.176,18.227,18.227,18.227
	s18.227-8.178,18.227-18.227C92.731,63.973,84.555,55.797,74.504,55.797L74.504,55.797z M74.504,85.353
	c-6.248,0-11.331-5.083-11.331-11.329c0-6.248,5.083-11.331,11.331-11.331c6.247,0,11.33,5.083,11.33,11.331
	C85.833,80.27,80.751,85.353,74.504,85.353L74.504,85.353z"/>
<path fill="#FFFFFF" d="M141.123,42.509c1.342-9.865-0.198-18.255-4.457-24.454c0.698-1.538,1.088-3.244,1.088-5.039
	c0-6.76-5.499-12.258-12.258-12.258c-4.568,0-8.559,2.513-10.668,6.228c-11.548-0.578-25.689,3.666-40.325,12.122
	C49.513,4.666,26.888,2.93,15.151,14.672c-5.102,5.1-7.743,12.399-7.731,21.217C3.06,37.77,0,42.108,0,47.15
	c0,6.76,5.5,12.26,12.26,12.26c0.07,0,0.14-0.004,0.211-0.005c1.886,4.795,4.271,9.694,7.116,14.619
	C5.145,99.013,3.41,121.638,15.151,133.375c5.179,5.18,12.476,7.738,21.163,7.738c11,0,24.227-4.105,38.189-12.173
	c13.964,8.07,27.189,12.173,38.189,12.173c8.687,0,15.987-2.558,21.167-7.738c11.739-11.74,10.002-34.366-4.444-59.354
	C135.768,63.022,139.81,52.163,141.123,42.509L141.123,42.509z M125.496,7.654c2.956,0,5.362,2.406,5.362,5.362
	c0,2.957-2.406,5.362-5.362,5.362c-2.957,0-5.362-2.405-5.362-5.362C120.134,10.06,122.539,7.654,125.496,7.654L125.496,7.654z
	 M113.266,13.831c0.421,6.382,5.743,11.445,12.23,11.445c2.348,0,4.543-0.664,6.409-1.815c2.554,4.636,3.379,10.816,2.385,18.118
	c-1.065,7.839-4.171,16.647-9.031,25.727c-5.542-8.405-12.2-16.517-19.859-24.177s-15.775-14.32-24.183-19.866
	C92.989,16.95,104.108,13.675,113.266,13.831L113.266,13.831z M12.26,52.512c-2.957,0-5.362-2.405-5.362-5.362
	c0-2.956,2.405-5.362,5.362-5.362c2.956,0,5.362,2.406,5.362,5.362C17.622,50.108,15.216,52.512,12.26,52.512L12.26,52.512z
	 M19.075,57.335c3.28-2.202,5.443-5.945,5.443-10.184c0-6.057-4.417-11.1-10.199-12.083c0.14-6.571,2.086-11.897,5.709-15.519
	c8.817-8.821,27.216-7.269,47.756,3.719c-8.406,5.545-16.519,12.205-24.177,19.862c-7.659,7.658-14.319,15.772-19.863,24.18
	C21.943,63.943,20.384,60.609,19.075,57.335L19.075,57.335z M20.027,128.498c-8.821-8.818-7.271-27.216,3.719-47.757
	c5.544,8.407,12.203,16.52,19.861,24.178c7.659,7.658,15.772,14.316,24.178,19.862C47.245,135.768,28.846,137.32,20.027,128.498
	L20.027,128.498z M48.484,100.042c-8.216-8.215-15.224-16.96-20.857-26.018c5.632-9.058,12.642-17.803,20.857-26.019
	c8.217-8.217,16.96-15.225,26.019-20.857c9.058,5.632,17.803,12.64,26.018,20.857c8.219,8.218,15.227,16.963,20.855,26.019
	c-5.628,9.055-12.635,17.799-20.855,26.018c-8.215,8.216-16.96,15.225-26.018,20.857C65.446,115.267,56.701,108.258,48.484,100.042
	L48.484,100.042z M128.981,128.499c-8.82,8.819-27.22,7.269-47.76-3.719c8.406-5.545,16.519-12.203,24.178-19.862
	s14.317-15.772,19.858-24.175C136.247,101.282,137.8,119.68,128.981,128.499L128.981,128.499z"/>
</svg>
