<?xml version="1.0" encoding="utf-8"?>
<!-- Generator: Adobe Illustrator 17.0.0, SVG Export Plug-In . SVG Version: 6.00 Build 0)  -->
<!DOCTYPE svg PUBLIC "-//W3C//DTD SVG 1.1//EN" "http://www.w3.org/Graphics/SVG/1.1/DTD/svg11.dtd">
<svg version="1.1" id="Layer_1" xmlns="http://www.w3.org/2000/svg" xmlns:xlink="http://www.w3.org/1999/xlink" x="0px" y="0px"
	 width="141.73px" height="141.73px" viewBox="0 0 141.73 141.73" enable-background="new 0 0 141.73 141.73" xml:space="preserve">
<g>
	<g>
		<path fill="#0C3A63" d="M136.348,110.882l-27.771-27.771c-3.315-3.315-8.708-3.315-12.024,0l-7.222,7.222
			c-2.263,2.263-2.978,5.493-2.152,8.371l-2.725,2.725c-0.001,0.001-0.001,0.001-0.002,0.002
			c-1.935,1.937-13.986-1.036-28.552-15.602C41.336,71.264,38.363,59.215,40.298,57.277c0-0.001,0.001-0.001,0.001-0.001
			l2.727-2.727c0.77,0.221,1.564,0.334,2.359,0.334c2.177,0,4.354-0.829,6.012-2.486l7.222-7.222c3.315-3.315,3.315-8.708,0-12.023
			L30.847,5.382c-1.606-1.606-3.741-2.49-6.011-2.49c-2.271,0-4.406,0.885-6.011,2.49l-7.222,7.222
			c-2.263,2.263-2.978,5.494-2.152,8.371c0,0-2.31,2.332-2.425,2.479c-7.682,8.54-9.124,21.984-4.031,38.059
			c4.987,15.739,15.739,32.412,30.275,46.947c14.535,14.535,31.208,25.287,46.947,30.275c6.322,2.003,12.237,2.996,17.608,2.996
			c8.806,0,16.149-2.671,21.412-7.934l1.515-1.515c0.758,0.218,1.551,0.336,2.362,0.336c2.271,0,4.406-0.885,6.011-2.49l7.222-7.222
			C139.662,119.59,139.662,114.197,136.348,110.882z M24.836,11.393l27.771,27.772L45.39,46.39c0,0-0.001-0.001-0.004-0.004
			l-0.104-0.104L31.5,32.5L17.614,18.615L24.836,11.393z M113.226,127.785c-0.001,0.001-0.001,0.001-0.001,0.001
			c-6.116,6.115-16.926,7.125-30.439,2.843c-14.464-4.584-29.914-14.592-43.503-28.182c-13.59-13.589-23.598-29.039-28.182-43.503
			C6.818,45.431,7.828,34.62,13.945,28.504l0.001-0.001l0.767-0.767l21.552,21.552l-1.977,1.977
			c-0.001,0.001-0.002,0.003-0.004,0.005c-8.19,8.2,1.651,26.615,15.606,40.571c10.445,10.445,23.389,18.585,32.678,18.585
			c3.124,0,5.834-0.92,7.897-2.984c0.001-0.001,0.001-0.001,0.002-0.002l1.975-1.975l21.552,21.552L113.226,127.785z
			 M123.115,124.116L95.343,96.344l7.222-7.222l27.771,27.771C130.336,116.893,123.117,124.118,123.115,124.116z"/>
	</g>
</g>
<g>
	<g>
		<path fill="#0C3A63" d="M107.631,34.099c-8.086-8.086-18.835-12.538-30.268-12.538c-2.348,0-4.251,1.903-4.251,4.251
			s1.903,4.251,4.251,4.251c9.163-0.001,17.777,3.568,24.257,10.048c6.479,6.479,10.047,15.093,10.047,24.256
			c0,2.348,1.903,4.251,4.251,4.251c2.347,0,4.251-1.903,4.251-4.25C120.168,52.934,115.716,42.185,107.631,34.099z"/>
	</g>
</g>
<g>
	<g>
		<path fill="#0C3A63" d="M122.877,18.853C110.719,6.695,94.554-0.001,77.361,0c-2.348,0-4.251,1.903-4.251,4.251
			c0,2.348,1.903,4.251,4.251,4.251c14.922-0.001,28.952,5.811,39.504,16.363c10.552,10.552,16.363,24.581,16.363,39.503
			c0,2.348,1.903,4.251,4.251,4.251c2.347,0,4.251-1.903,4.251-4.25C141.73,47.175,135.035,31.011,122.877,18.853z"/>
	</g>
</g>
<g>
	<g>
		<path fill="#0C3A63" d="M92.384,49.345c-4.071-4.071-9.264-6.222-15.019-6.222c0,0-0.001,0-0.002,0
			c-2.348,0.001-4.251,1.903-4.25,4.251c0.001,2.348,1.904,4.251,4.251,4.25c0.001,0,0.001,0,0.001,0c3.5,0,6.531,1.256,9.007,3.732
			c2.441,2.442,3.732,5.557,3.731,9.009c-0.001,2.348,1.903,4.251,4.25,4.251h0.001c2.348,0,4.25-1.903,4.251-4.25
			C98.606,58.611,96.455,53.417,92.384,49.345z"/>
	</g>
</g>
</svg>
