<?xml version="1.0" encoding="utf-8"?>
<!-- Generator: Adobe Illustrator 17.0.0, SVG Export Plug-In . SVG Version: 6.00 Build 0)  -->
<!DOCTYPE svg PUBLIC "-//W3C//DTD SVG 1.1//EN" "http://www.w3.org/Graphics/SVG/1.1/DTD/svg11.dtd">
<svg version="1.1" id="Capa_1" xmlns="http://www.w3.org/2000/svg" xmlns:xlink="http://www.w3.org/1999/xlink" x="0px" y="0px"
	 width="141.732px" height="141.732px" viewBox="0 0 141.732 141.732" enable-background="new 0 0 141.732 141.732"
	 xml:space="preserve">
<path fill="#FFFFFF" d="M117.053,36.654H24.68c-1.684,0-3.051,1.365-3.051,3.05v46.07c0,1.686,1.366,3.051,3.051,3.051
	c1.684,0,3.05-1.365,3.05-3.051v-43.02h86.273v43.02c0,1.684,1.366,3.051,3.051,3.051c1.684,0,3.051-1.366,3.051-3.051v-46.07
	C120.103,38.02,118.738,36.654,117.053,36.654L117.053,36.654z"/>
<path fill="#FFFFFF" d="M138.988,96.667h-5.619V32.609c0-5.085-4.136-9.221-9.22-9.221H17.584c-5.085,0-9.221,4.136-9.221,9.221
	v64.058H2.745C1.229,96.667,0,97.896,0,99.413v5.389c0,7.468,6.076,13.542,13.544,13.542H128.19c7.468,0,13.542-6.075,13.542-13.542
	v-5.389C141.734,97.896,140.504,96.667,138.988,96.667L138.988,96.667z M14.464,32.609c0-1.721,1.399-3.12,3.119-3.12h106.564
	c1.721,0,3.121,1.399,3.121,3.12v64.058H85.966c-0.195-0.007-0.395,0.009-0.593,0.049c-1.292,0.248-2.226,1.379-2.226,2.695
	c0,2.317-1.886,4.202-4.202,4.202H62.789c-2.318,0-4.203-1.886-4.203-4.202c0-1.538-1.273-2.778-2.809-2.745H14.464V32.609z
	 M136.243,104.802c0,4.44-3.613,8.052-8.053,8.052H13.544c-4.44,0-8.053-3.611-8.053-8.052v-2.644h48.002
	c1.187,4.01,4.905,6.946,9.297,6.946h16.155c4.39,0,8.108-2.936,9.297-6.946h48.002L136.243,104.802L136.243,104.802z"/>
<path fill="#FFFFFF" d="M75.387,54.384c-1.191-1.191-3.122-1.191-4.313,0L51.891,73.567c-1.191,1.192-1.191,3.124,0,4.315
	c0.595,0.596,1.376,0.893,2.156,0.893c0.781,0,1.561-0.299,2.157-0.893l19.183-19.184C76.579,57.507,76.579,55.575,75.387,54.384
	L75.387,54.384z"/>
<path fill="#FFFFFF" d="M86.757,65.502c-1.191-1.192-3.123-1.192-4.313,0l-7.642,7.641c-1.191,1.192-1.191,3.122,0,4.314
	c0.596,0.596,1.377,0.893,2.157,0.893c0.781,0,1.561-0.297,2.156-0.893l7.642-7.642C87.949,68.624,87.949,66.693,86.757,65.502
	L86.757,65.502z"/>
</svg>
